Coordinates
nRows=175
nColumns=2
inDegrees=yes
endheader
time	ankle_angle_r	
4.3125	 -0.534421	
4.375	 -0.473022	
4.4375	 -0.457037	
4.5	 -0.488281	
4.5625	 -0.504630	
4.625	 -0.503540	
4.6875	 -0.520615	
4.75	 -0.571115	
4.8125	 -0.525157	
4.875	 -0.534058	
4.9375	 -0.534058	
5	 -0.497727	
5.0625	 -0.534058	
5.125	 -0.524248	
5.1875	 -0.528790	
5.25	 -0.569661	
5.3125	 -0.554766	
5.375	 -0.549316	
5.4375	 -0.517164	
5.5	 -0.518799	
5.5625	 -0.534058	
5.625	 -0.488281	
5.6875	 -0.503540	
5.75	 -0.515166	
5.8125	 -0.491733	
5.875	 -0.537327	
5.9375	 -0.399817	
6	 -0.478835	
6.0625	 -0.485556	
6.125	 -0.432332	
6.1875	 -0.475384	
6.25	 -0.501360	
6.3125	 -0.503540	
6.375	 -0.505357	
6.4375	 -0.440870	
6.5	 -0.430153	
6.5625	 -0.446320	
6.625	 -0.488281	
6.6875	 -0.579834	
6.75	 -0.489008	
6.8125	 -0.549861	
6.875	 -0.549316	
6.9375	 -0.503722	
7	 -0.518799	
7.0625	 -0.503177	
7.125	 -0.549680	
7.1875	 -0.549316	
7.25	 -0.519525	
7.3125	 -0.550225	
7.375	 -0.531878	
7.4375	 -0.446320	
7.5	 -0.471569	
7.5625	 -0.398363	
7.625	 -0.457764	
7.6875	 -0.455765	
7.75	 -0.429426	
7.8125	 -0.470661	
7.875	 -0.434875	
7.9375	 -0.411987	
8	 -0.464303	
8.0625	 -0.445593	
8.125	 -0.561305	
8.1875	 -0.542414	
8.25	 -0.518799	
8.3125	 -0.541687	
8.375	 -0.461760	
8.4375	 -0.499362	
8.5	 -0.488281	
8.5625	 -0.488281	
8.625	 -0.564575	
8.6875	 -0.529153	
8.75	 -0.554403	
8.8125	 -0.544048	
8.875	 -0.524248	
8.9375	 -0.543685	
9	 -0.534058	
9.0625	 -0.500270	
9.125	 -0.518799	
9.1875	 -0.466665	
9.25	 -0.488281	
9.3125	 -0.451043	
9.375	 -0.434149	
9.4375	 -0.473022	
9.5	 -0.396729	
9.5625	 -0.496092	
9.625	 -0.526428	
9.6875	 -0.533694	
9.75	 -0.557309	
9.8125	 -0.480107	
9.875	 -0.518799	
9.9375	 -0.503540	
10	 -0.490461	
10.0625	 -0.564575	
10.125	 -0.543140	
10.1875	 -0.573839	
10.25	 -0.564575	
10.3125	 -0.518799	
10.375	 -0.564575	
10.4375	 -0.544048	
10.5	 -0.523885	
10.5625	 -0.579834	
10.625	 -0.528245	
10.6875	 -0.553858	
10.75	 -0.518799	
10.8125	 -0.492459	
10.875	 -0.473022	
10.9375	 -0.434875	
11	 -0.515166	
11.0625	 -0.473022	
11.125	 -0.461033	
11.1875	 -0.518799	
11.25	 -0.470116	
11.3125	 -0.516074	
11.375	 -0.506083	
11.4375	 -0.503540	
11.5	 -0.564575	
11.5625	 -0.536056	
11.625	 -0.535874	
11.6875	 -0.579834	
11.75	 -0.488281	
11.8125	 -0.532786	
11.875	 -0.535148	
11.9375	 -0.504448	
12	 -0.564575	
12.0625	 -0.548226	
12.125	 -0.534058	
12.1875	 -0.579652	
12.25	 -0.579834	
12.3125	 -0.564575	
12.375	 -0.564212	
12.4375	 -0.519889	
12.5	 -0.565302	
12.5625	 -0.562759	
12.625	 -0.549316	
12.6875	 -0.546773	
12.75	 -0.504993	
12.8125	 -0.547682	
12.875	 -0.532241	
12.9375	 -0.553313	
13	 -0.558036	
13.0625	 -0.505902	
13.125	 -0.503540	
13.1875	 -0.460488	
13.25	 -0.485375	
13.3125	 -0.451587	
13.375	 -0.411987	
13.4375	 -0.491733	
13.5	 -0.442505	
13.5625	 -0.442505	
13.625	 -0.530061	
13.6875	 -0.499362	
13.75	 -0.507900	
13.8125	 -0.457764	
13.875	 -0.457764	
13.9375	 -0.488281	
14	 -0.498454	
14.0625	 -0.498817	
14.125	 -0.493731	
14.1875	 -0.432877	
14.25	 -0.463577	
14.3125	 -0.457764	
14.375	 -0.485375	
14.4375	 -0.497182	
14.5	 -0.503540	
14.5625	 -0.495002	
14.625	 -0.467573	
14.6875	 -0.473022	
14.75	 -0.457764	
14.8125	 -0.449953	
14.875	 -0.518799	
14.9375	 -0.457764	
15	 -0.511533	
15.0625	 -0.504630	
15.125	 -0.464666	
15.1875	 -0.457764	
